<svg xmlns="http://www.w3.org/2000/svg" xmlns:xlink="http://www.w3.org/1999/xlink" width="100.052" height="100.052" viewBox="0 0 100.052 100.052">
  <defs>
    <filter id="spotifysvg" x="0" y="0" width="100.052" height="100.052" filterUnits="userSpaceOnUse">
      <feOffset dx="5" dy="3" input="SourceAlpha"/>
      <feGaussianBlur stdDeviation="3" result="blur"/>
      <feFlood flood-opacity="0.161"/>
      <feComposite operator="in" in2="blur"/>
      <feComposite in="SourceGraphic"/>
    </filter>
  </defs>
  <g transform="matrix(1, 0, 0, 1, 0, 0)" filter="url(#spotifysvg)">
    <path id="spotifysvg-2" data-name="spotifysvg" d="M65.294,36.37c-13.224-7.854-35.037-8.576-47.662-4.744A3.837,3.837,0,0,1,15.4,24.282c14.492-4.4,38.582-3.549,53.807,5.488a3.837,3.837,0,0,1-3.917,6.6M64.861,48a3.2,3.2,0,0,1-4.4,1.053c-11.025-6.777-27.837-8.74-40.88-4.781a3.2,3.2,0,1,1-1.859-6.12c14.9-4.522,33.424-2.332,46.087,5.45A3.2,3.2,0,0,1,64.861,48M59.84,59.173a2.555,2.555,0,0,1-3.516.851c-9.634-5.888-21.76-7.218-36.041-3.956a2.556,2.556,0,1,1-1.138-4.984c15.628-3.572,29.033-2.035,39.846,4.573a2.557,2.557,0,0,1,.849,3.516M41.025,0A41.026,41.026,0,1,0,82.052,41.025,41.025,41.025,0,0,0,41.025,0" transform="translate(4 6)" fill="#191414"/>
  </g>
</svg>
