<svg class="svg-icon" style="width: 1em; height: 1em;vertical-align: middle;fill: currentColor;overflow: hidden;" viewBox="0 0 1024 1024" version="1.1" xmlns="http://www.w3.org/2000/svg"><path d="M856.874667 448l51.285333 30.762667a21.333333 21.333333 0 0 1 0 36.608L512 753.066667l-396.16-237.696a21.333333 21.333333 0 0 1 0-36.608l51.285333-30.762667L512 654.933333l344.874667-206.933333z m0 200.533333l51.285333 30.762667a21.333333 21.333333 0 0 1 0 36.608l-374.186667 224.512a42.666667 42.666667 0 0 1-43.946666 0l-374.186667-224.512a21.333333 21.333333 0 0 1 0-36.608l51.285333-30.762667L512 855.466667l344.874667-206.933334zM533.930667 55.850667l374.229333 224.512a21.333333 21.333333 0 0 1 0 36.608L512 554.666667 115.84 316.970667a21.333333 21.333333 0 0 1 0-36.608l374.186667-224.512a42.666667 42.666667 0 0 1 43.946666 0z"  /></svg>